PathFileType	4	(X/Y/Z)	s02c0403.trc
DataRate	CameraRate	NumFrames	NumMarkers	Units	OrigDataRate	OrigDataStartFrame	OrigNumFrames
200	200	6	51	mm	200	1250	2000
Frame#	Time	racr			lacr			c7			jug			rlel			rdr			llel			ldr			s2			lic			ric			lasi			rasi			rpsi			lpsi			rgt			lgt			rth1			rth2			rth3			rth4			rlfc			rmfc			rsh1			rsh2			rsh3			rsh4			rlmal			rmmal			rcal			rtoe			rmt5			rmt1			lth1			lth2			lth4			lth3			llfc			lmfc			lsh1			lsh2			lsh3			lsh4			llmal			lmmal			lcal			ltoe			lmt5			SBIKE			LBIKE			RBIKE			
		X1	Y1	Z1	X2	Y2	Z2	X3	Y3	Z3	X4	Y4	Z4	X5	Y5	Z5	X6	Y6	Z6	X7	Y7	Z7	X8	Y8	Z8	X9	Y9	Z9	X10	Y10	Z10	X11	Y11	Z11	X12	Y12	Z12	X13	Y13	Z13	X14	Y14	Z14	X15	Y15	Z15	X16	Y16	Z16	X17	Y17	Z17	X18	Y18	Z18	X19	Y19	Z19	X20	Y20	Z20	X21	Y21	Z21	X22	Y22	Z22	X23	Y23	Z23	X24	Y24	Z24	X25	Y25	Z25	X26	Y26	Z26	X27	Y27	Z27	X28	Y28	Z28	X29	Y29	Z29	X30	Y30	Z30	X31	Y31	Z31	X32	Y32	Z32	X33	Y33	Z33	X34	Y34	Z34	X35	Y35	Z35	X36	Y36	Z36	X37	Y37	Z37	X38	Y38	Z38	X39	Y39	Z39	X40	Y40	Z40	X41	Y41	Z41	X42	Y42	Z42	X43	Y43	Z43	X44	Y44	Z44	X45	Y45	Z45	X46	Y46	Z46	X47	Y47	Z47	X48	Y48	Z48	X49	Y49	Z49	X50	Y50	Z50	X51	Y51	Z51	
1250	6.2500	800.111929	1228.106125	-171.641954	768.267306	1145.829958	-527.241149	800.423620	1244.779999	-364.895881	0.000000	0.000000	-0.000000	627.039556	1038.215686	-58.672960	710.002294	876.522764	-133.652440	554.170479	997.353907	-646.460347	684.464785	880.462360	-526.919844	252.740831	1193.212073	-335.150875	387.730185	1135.698119	-480.779634	363.034546	1181.066912	-186.261343	421.082001	1095.647914	-446.798946	407.703372	1141.675949	-211.375184	271.437870	1223.779487	-298.295509	285.686805	1216.919406	-383.299113	325.729595	1095.884908	-139.709982	318.104335	1061.172127	-495.765739	403.757593	1028.968067	-140.805634	474.936805	977.311498	-144.149378	516.424227	906.368546	-119.427987	497.440539	993.009329	-172.094349	564.276630	772.133236	-145.223532	544.437112	754.502896	-254.757269	483.395996	695.418181	-126.942217	416.397297	637.352033	-143.843858	334.398876	615.477364	-136.815062	424.432676	625.131721	-181.754548	220.599053	567.096604	-138.986399	245.505557	576.193518	-220.622644	147.594921	606.992296	-185.945712	263.289931	343.507842	-195.435675	203.754683	433.267399	-133.261842	226.312741	417.710877	-241.355175	399.586285	944.440908	-508.512348	449.974078	873.805265	-500.367914	481.201680	886.565712	-487.399513	457.254562	785.550879	-497.797196	491.125368	694.974486	-474.140171	485.690531	664.981189	-376.212099	460.815413	593.962549	-498.452208	455.703095	509.063258	-484.296666	405.946166	433.112089	-487.954079	471.597988	506.140487	-446.841142	355.274032	339.182822	-478.106924	367.726678	331.151217	-401.316461	279.033608	313.685374	-441.609488	538.533951	184.751463	-441.856074	434.257734	210.287097	-503.445671	-128.543219	869.473435	-314.948900	32.796506	82.195309	-515.224363	32.918810	82.402023	-115.138263	
1251	6.2550	799.036076	1229.770726	-169.645521	769.525604	1148.052189	-525.763051	800.432741	1246.693773	-362.673279	0.000000	0.000000	-0.000000	626.531688	1038.074568	-57.500123	709.939219	876.648061	-133.564283	554.744792	998.834072	-644.744542	684.807590	880.077010	-526.678947	252.025763	1190.890029	-336.876618	388.099713	1133.438839	-481.180991	362.020701	1180.449940	-187.155971	421.449420	1093.687990	-446.809316	407.184317	1141.582537	-212.344156	270.610071	1220.938714	-300.621744	285.299740	1214.127956	-384.941294	325.678075	1095.498141	-140.087208	318.207505	1057.948741	-495.839720	403.810882	1030.336095	-142.441215	477.546507	981.085267	-144.480360	520.693014	910.904815	-120.050127	499.755822	998.016893	-171.976028	571.559411	777.802302	-146.315420	551.365029	760.207188	-256.367931	490.532191	701.332514	-128.253626	422.961796	643.823373	-144.962164	340.409734	622.600133	-138.029684	430.642680	631.845430	-182.999200	226.800315	575.457654	-139.740665	251.569429	584.175644	-221.215697	153.163234	614.566556	-186.423476	271.211961	352.502598	-195.735829	210.879143	441.654803	-133.768847	233.385941	426.108824	-241.634011	397.090587	939.573675	-509.149167	445.441903	867.377971	-501.673416	477.163550	879.462490	-488.128840	450.363919	779.120127	-498.439239	481.981789	687.916384	-474.904690	476.174941	658.100050	-377.545774	451.869150	587.310315	-499.515787	447.667268	502.445400	-485.317727	398.604484	425.896836	-488.698228	463.770439	499.155785	-447.033132	349.516898	331.860474	-478.544008	362.102649	323.859035	-401.673756	273.476526	307.427418	-441.742077	531.364394	175.237932	-442.045027	427.442750	202.057850	-503.337904	-128.571878	869.452176	-315.003231	32.796436	82.150764	-515.238829	32.903279	82.407697	-115.146866	
1252	6.2600	797.874355	1231.397799	-167.165219	770.934837	1150.376712	-524.151523	800.374482	1248.513078	-360.463818	0.000000	0.000000	-0.000000	625.977159	1037.832446	-55.932603	709.850488	876.889099	-133.436822	555.405080	1000.593241	-643.012481	685.099749	879.800840	-526.550947	251.552371	1188.482435	-338.703719	388.263547	1131.172088	-481.526040	360.952804	1179.942321	-188.023671	421.780978	1091.826138	-446.813621	406.638357	1141.515941	-213.347574	269.350359	1221.139186	-301.390167	283.861824	1211.855578	-385.970900	325.666656	1095.203211	-140.504103	318.149318	1054.989926	-496.027136	405.118025	1032.466482	-142.691710	480.157577	984.914056	-144.830225	524.810170	915.789270	-120.095377	501.585484	1002.168786	-172.030866	578.677760	783.738485	-147.530305	561.030440	767.728162	-258.242156	497.659209	707.450052	-129.629519	429.573096	650.585771	-146.357438	346.894048	629.927863	-139.043185	438.262769	639.858237	-181.641383	233.296662	583.293438	-140.576304	257.327682	592.217640	-222.284735	158.979345	621.841427	-186.828381	279.530544	360.864948	-196.086736	218.490397	449.603105	-134.214583	239.985532	435.324730	-241.114749	394.198551	935.133064	-509.683628	440.738026	861.724036	-501.985832	472.694546	872.863623	-488.996525	442.563497	773.834465	-500.000991	472.431186	681.442053	-475.962517	466.306236	651.849460	-378.969185	442.757061	581.149050	-500.660776	439.365591	496.228320	-486.176606	391.013218	419.233950	-489.409154	455.394997	493.709857	-448.530327	343.357752	324.995796	-478.985119	355.974272	317.099047	-402.075949	267.434386	301.659494	-442.021840	523.752229	166.195116	-441.738644	420.224554	194.275729	-503.260039	-128.593029	869.445570	-315.049476	32.797018	82.115458	-515.243122	32.908803	82.394649	-115.151682	
1253	6.2650	796.742030	1232.620127	-164.932593	772.414340	1152.799755	-522.375444	800.397584	1250.364178	-358.084072	0.000000	0.000000	-0.000000	625.037366	1037.580105	-54.479528	709.757320	877.186437	-133.179985	556.135111	1002.809562	-641.258226	685.420640	879.724688	-526.674794	251.134689	1186.237288	-340.801788	388.699474	1129.214143	-481.934260	359.942508	1179.550691	-188.933167	422.074197	1090.075290	-446.812832	406.026314	1141.602312	-214.364286	268.717745	1218.713029	-303.500525	283.422963	1209.530850	-387.681601	325.522747	1095.070357	-140.895356	317.874274	1052.359670	-496.131854	406.348635	1034.775062	-142.723162	482.581529	988.938886	-145.240139	528.933341	920.727518	-121.237160	503.357470	1006.895778	-172.171682	585.677979	789.871557	-149.147448	566.282402	773.632772	-258.894774	504.804781	713.637173	-131.027309	436.360796	657.178231	-147.583815	354.004699	637.146193	-140.148966	443.789445	645.765017	-184.547625	240.196204	590.721887	-141.506797	263.644815	599.663852	-223.289181	165.158361	628.594884	-187.432592	288.314545	368.948578	-196.319246	226.676626	457.077339	-134.694696	247.515424	443.331964	-241.304011	390.836240	931.263751	-510.499246	435.586135	856.605688	-502.840064	467.852079	867.005635	-489.897239	436.020857	767.911086	-499.404198	462.918507	675.627081	-476.916860	456.324827	646.166051	-380.216680	433.524688	575.501308	-501.705032	430.861574	490.677546	-487.300836	383.147704	413.266825	-490.184386	446.983097	488.306913	-449.572513	336.862709	318.689967	-479.532463	349.152412	311.126286	-402.690210	260.999073	296.513625	-442.333059	515.570386	157.562725	-441.347598	412.571037	187.007792	-503.142186	-128.619030	869.421654	-315.070542	32.795387	82.111454	-515.240267	32.906915	82.402724	-115.159690	
1254	6.2700	795.600842	1233.728885	-162.438029	773.726868	1155.500573	-521.408526	800.684502	1252.177667	-355.290120	0.000000	0.000000	-0.000000	624.557846	1037.358536	-52.564813	709.663040	877.520096	-132.818494	556.994186	1005.230447	-639.432904	685.784895	879.768064	-526.959432	250.802059	1184.491915	-342.808406	388.922340	1127.195528	-482.372317	359.021521	1179.196824	-189.926603	422.326659	1088.448255	-446.807858	405.465183	1141.726974	-215.341235	267.936357	1216.689194	-305.628354	282.916588	1207.339911	-389.362605	325.336851	1095.198624	-141.195904	317.465017	1049.944858	-496.237951	407.480969	1037.201847	-142.749492	484.270120	992.779242	-145.170330	532.842171	925.795606	-121.931250	505.133716	1011.344736	-173.042632	592.594837	796.355775	-150.340047	572.850030	780.279417	-261.229508	511.956488	720.045566	-132.437569	443.576191	664.323793	-148.461046	360.772089	643.940332	-141.261675	450.390624	651.762182	-186.481819	247.349259	597.695422	-142.491628	270.360128	606.619779	-224.262839	171.609802	634.748385	-187.833959	297.583226	376.413074	-196.695760	235.294719	463.986169	-135.194066	256.096433	449.183464	-242.451676	387.454029	927.797192	-511.190766	430.280863	852.080534	-503.702521	462.825376	861.649756	-490.905147	428.471833	763.448832	-500.373886	453.298186	670.604478	-477.899710	446.327168	641.301417	-381.220594	424.172523	570.470856	-502.840739	422.290821	485.653896	-488.251352	375.098167	407.869068	-491.074448	438.394190	483.438238	-450.559275	330.152789	312.877862	-480.123126	342.397093	305.482938	-403.188693	254.340008	291.908772	-442.655498	507.026645	149.230730	-440.893769	404.446085	180.223090	-503.120356	-128.596753	869.446043	-314.932558	32.804238	82.098316	-515.245851	32.918875	82.373850	-115.150903	
1255	6.2750	794.472333	1234.671293	-159.880115	775.281631	1157.948574	-519.135614	800.792806	1253.827622	-352.476348	0.000000	0.000000	-0.000000	624.050548	1037.138204	-50.870961	709.531298	877.766365	-132.440650	557.944765	1007.839984	-637.593561	686.249857	879.864782	-527.407861	250.686871	1182.917821	-344.115159	388.923270	1125.087912	-482.871274	358.402118	1179.123263	-190.158480	422.535822	1086.957844	-446.799697	404.866573	1141.961325	-216.532416	266.879318	1214.998215	-307.700420	282.599909	1205.493692	-391.089032	324.908994	1095.531851	-141.748544	316.823516	1047.839213	-496.393118	408.582198	1039.617418	-142.595654	486.288886	996.829799	-146.229985	536.277234	931.039259	-122.599544	506.312868	1015.684681	-174.159214	599.280228	803.086189	-151.742945	580.183851	786.720835	-260.544884	519.140993	726.438433	-133.806033	450.520490	670.716738	-149.879375	367.747181	650.481450	-142.489532	457.360830	658.270825	-187.858777	254.819390	604.165162	-143.485195	277.292832	613.143961	-225.330864	178.389581	640.350919	-188.250485	306.803017	383.302830	-197.518211	244.152714	470.422961	-135.621838	264.194109	455.672241	-243.367875	384.026321	924.911021	-511.829654	424.925425	848.176936	-504.523479	457.706621	856.851729	-491.936503	420.956112	759.554261	-501.329359	443.766544	666.457468	-478.936543	436.421131	637.057608	-382.257133	414.847711	566.063425	-503.920213	413.495620	481.115278	-489.147889	366.925483	403.077026	-491.942059	429.679587	479.113070	-451.517804	323.213341	307.758706	-480.823017	335.385931	300.433265	-403.800153	247.489718	288.035480	-443.220022	497.877521	140.989609	-439.930347	396.141371	173.934887	-503.089981	-128.634047	869.440390	-314.937073	32.800403	82.067107	-515.270526	32.907631	82.382864	-115.166247	
